<svg xmlns="http://www.w3.org/2000/svg" preserveAspectRatio="none" width="100%" height="100%" overflow="visible" style="display: block;" viewBox="0 0 152 52" fill="none">
<g id="Group 62">
<g id="Frame 496">
<rect x="0.5" y="0.5" width="51" height="51" rx="7.5" fill="var(--fill-0, #FDFFF8)"/>
<rect x="0.5" y="0.5" width="51" height="51" rx="7.5" stroke="var(--stroke-0, #DFE2D7)"/>
<path id="Union" d="M33 18C35.2091 18 37 19.7909 37 22V30C37 32.2091 35.2091 34 33 34H19C16.7909 34 15 32.2091 15 30V22C15 19.7909 16.7909 18 19 18H33ZM21.3916 21.2793C20.8194 21.0504 20.1806 21.0504 19.6084 21.2793C18.0329 21.9096 17 23.4359 17 25.1328V30C17 30.5523 17.4477 31 18 31C18.5523 31 19 30.5523 19 30V28H22V30C22 30.5523 22.4477 31 23 31C23.5523 31 24 30.5523 24 30V25.1328C24 23.4359 22.9671 21.9096 21.3916 21.2793ZM26 21C25.4477 21 25 21.4477 25 22V30C25 30.5523 25.4477 31 26 31C26.5523 31 27 30.5523 27 30V28H28.5C30.433 28 32 26.433 32 24.5C32 22.567 30.433 21 28.5 21H26ZM34 21C33.4477 21 33 21.4477 33 22V30C33 30.5523 33.4477 31 34 31C34.5523 31 35 30.5523 35 30V22C35 21.4477 34.5523 21 34 21ZM20.3516 23.1367C20.4469 23.0986 20.5531 23.0986 20.6484 23.1367C21.4647 23.4632 22 24.2537 22 25.1328V26H19V25.1328C19 24.2537 19.5353 23.4632 20.3516 23.1367ZM28.5 23C29.3284 23 30 23.6716 30 24.5C30 25.3284 29.3284 26 28.5 26H27V23H28.5Z" fill="var(--fill-0, #111111)"/>
</g>
<g id="Frame 497">
<rect x="100.5" y="0.5" width="51" height="51" rx="7.5" fill="var(--fill-0, #FDFFF8)"/>
<rect x="100.5" y="0.5" width="51" height="51" rx="7.5" stroke="var(--stroke-0, #DFE2D7)"/>
<path id="Subtract" d="M125.969 27.2429L128.059 19H131.5V33H128.835V23.2492L126.602 31.6014H125.059L122.827 23.2492V33H120.5V19H123.881L125.969 27.2429Z" fill="var(--fill-0, black)"/>
</g>
<path id="Arrow 3" d="M69.1464 25.6464C68.9512 25.8417 68.9512 26.1583 69.1464 26.3536L72.3284 29.5355C72.5237 29.7308 72.8403 29.7308 73.0355 29.5355C73.2308 29.3403 73.2308 29.0237 73.0355 28.8284L70.2071 26L73.0355 23.1716C73.2308 22.9763 73.2308 22.6597 73.0355 22.4645C72.8403 22.2692 72.5237 22.2692 72.3284 22.4645L69.1464 25.6464ZM85.8536 26.3536C86.0488 26.1583 86.0488 25.8417 85.8536 25.6464L82.6716 22.4645C82.4763 22.2692 82.1597 22.2692 81.9645 22.4645C81.7692 22.6597 81.7692 22.9763 81.9645 23.1716L84.7929 26L81.9645 28.8284C81.7692 29.0237 81.7692 29.3403 81.9645 29.5355C82.1597 29.7308 82.4763 29.7308 82.6716 29.5355L85.8536 26.3536ZM69.5 26V26.5H85.5V26V25.5H69.5V26Z" fill="var(--stroke-0, black)"/>
</g>
</svg>

